<svg width="56" height="45" viewBox="0 0 56 45" fill="none" xmlns="http://www.w3.org/2000/svg">
<path d="M17.199 44.8866V44.4426C17.199 42.026 17.199 39.6093 17.1932 37.1927C17.1932 36.8585 17.2548 36.6995 17.5963 36.615C19.4826 36.1893 21.1744 35.0665 22.3835 33.4382C23.5926 31.8098 24.244 29.7766 24.2268 27.6851C24.2394 25.2729 24.718 22.8903 25.6317 20.6913C26.5454 18.4924 27.8738 16.526 29.5312 14.9191C31.1886 13.3123 33.138 12.1008 35.2536 11.3629C37.3691 10.6249 39.6037 10.377 41.8131 10.6351C44.0224 10.8932 46.1573 11.6516 48.0798 12.8613C50.0023 14.071 51.6696 15.705 52.9741 17.6578C54.2787 19.6107 55.1913 21.8389 55.6531 24.1986C56.1149 26.5582 56.1156 28.9968 55.6552 31.3567C55.5959 31.6708 55.5239 31.8612 55.1614 31.8612C47.7932 31.8486 40.4253 31.8449 33.0578 31.8499C32.9718 31.8499 32.8859 31.8297 32.7441 31.8121C32.8266 31.194 32.9335 30.5987 32.9765 29.9958C33.059 28.9464 33.023 27.8781 33.1903 26.8426C33.3892 25.9152 33.6485 25.0044 33.9664 24.1169C34.0825 23.7386 34.3335 23.6389 34.7029 23.6402C38.7496 23.6553 42.795 23.6503 46.8416 23.6503H47.5457C47.3935 23.3513 47.3017 23.1458 47.1971 22.9603C46.2434 21.2928 44.8167 20.0065 43.1316 19.295C41.4465 18.5835 39.5941 18.4853 37.8532 19.0152C36.1122 19.545 34.5768 20.6743 33.478 22.2331C32.3792 23.7919 31.7763 25.6959 31.7601 27.6586C31.7651 31.8727 30.3553 35.9443 27.7947 39.1114C25.2341 42.2785 21.698 44.324 17.8484 44.8651C17.7259 44.8826 17.6026 44.8931 17.479 44.8967C17.4151 44.9004 17.3454 44.8866 17.199 44.8866Z" fill="url(#paint0_linear_0_1200)"/>
<path d="M15.7723 36.8876V44.9699C14.3863 44.9689 13.0068 44.7649 11.6711 44.3633C8.31383 43.3618 5.35306 41.1897 3.24482 38.1817C1.13659 35.1736 -0.00212991 31.4965 0.00406637 27.7168C-0.00135546 18.7196 -0.00135546 9.72242 0.00406637 0.725241V0C0.727662 0.101933 1.44558 0.24678 2.15459 0.433885C3.68131 0.930967 5.02209 1.94396 5.98183 3.32547C6.94158 4.70697 7.47022 6.38491 7.49083 8.11512C7.50245 8.88072 7.49083 9.64507 7.49083 10.4851H15.7595V18.6519H15.1275C12.7771 18.6519 10.4267 18.6658 8.07754 18.6406C7.61282 18.6406 7.48038 18.7869 7.48386 19.2901C7.50594 22.1482 7.48385 25.0063 7.49663 27.8669C7.5197 30.0748 8.28376 32.1977 9.64558 33.8377C11.0074 35.4777 12.8735 36.5222 14.8939 36.7754C15.1739 36.8044 15.4563 36.8447 15.7723 36.8876Z" fill="url(#paint1_linear_0_1200)"/>
<path d="M28.9333 39.9612C30.7528 37.6556 32.0365 34.91 32.6767 31.9546C33.2914 33.2163 34.1704 34.3037 35.243 35.1291C36.3155 35.9546 37.5516 36.4951 38.8518 36.7071C40.1215 36.9343 41.4227 36.8335 42.6498 36.4127C43.8769 35.992 44.9953 35.2632 45.9145 34.2854L51.1752 40.0243C46.1387 46.0558 35.6324 47.2578 28.9333 39.9612Z" fill="url(#paint2_linear_0_1200)"/>
<defs>
<linearGradient id="paint0_linear_0_1200" x1="-0.347507" y1="2.35817" x2="44.4589" y2="48.2054" gradientUnits="userSpaceOnUse">
<stop stop-color="#EF8431"/>
<stop offset="1" stop-color="#E71A86"/>
</linearGradient>
<linearGradient id="paint1_linear_0_1200" x1="-6.7663" y1="11.6922" x2="47.1136" y2="17.0137" gradientUnits="userSpaceOnUse">
<stop stop-color="#EF8431"/>
<stop offset="1" stop-color="#E71A86"/>
</linearGradient>
<linearGradient id="paint2_linear_0_1200" x1="-2.3832" y1="5.29003" x2="20.0744" y2="57.6953" gradientUnits="userSpaceOnUse">
<stop stop-color="#EF8431"/>
<stop offset="1" stop-color="#E71A86"/>
</linearGradient>
</defs>
</svg>
